<?xml version="1.0" encoding="UTF-8"?>
<svg xmlns="http://www.w3.org/2000/svg" xmlns:xlink="http://www.w3.org/1999/xlink" viewBox="0 0 50 50" width="50px" height="50px">
<g id="surface34654298">
<path style=" stroke:none;fill-rule:nonzero;fill:rgb(97.647059%,97.647059%,97.647059%);fill-opacity:1;" d="M 10 6.667969 C 8.160156 6.667969 6.667969 8.160156 6.667969 10 L 6.667969 40 C 6.667969 41.839844 8.160156 43.332031 10 43.332031 L 40 43.332031 C 41.839844 43.332031 43.332031 41.839844 43.332031 40 L 43.332031 10 C 43.332031 8.160156 41.839844 6.667969 40 6.667969 Z M 29.167969 18.332031 L 33.429688 18.332031 C 33.886719 18.332031 34.261719 18.707031 34.261719 19.167969 C 34.261719 19.625 33.886719 20 33.429688 20 L 29.167969 20 C 28.707031 20 28.332031 19.625 28.332031 19.167969 C 28.332031 18.707031 28.707031 18.332031 29.167969 18.332031 Z M 14.867188 18.976562 L 19.507812 18.976562 C 22.25 18.976562 23.882812 20.316406 23.882812 22.496094 C 23.882812 23.992188 22.777344 25.300781 21.328125 25.515625 L 21.328125 25.691406 C 23.199219 25.828125 24.558594 27.234375 24.558594 29.054688 C 24.558594 31.53125 22.691406 33.097656 19.675781 33.097656 L 14.867188 33.097656 C 14.019531 33.097656 13.332031 32.414062 13.332031 31.566406 L 13.332031 20.507812 C 13.332031 19.660156 14.019531 18.972656 14.867188 18.972656 Z M 16.289062 21.234375 L 16.289062 24.828125 L 18.507812 24.828125 C 20.105469 24.828125 20.976562 24.171875 20.976562 23.039062 C 20.976562 21.914062 20.167969 21.234375 18.757812 21.234375 Z M 31.605469 22.066406 C 34.785156 22.066406 36.664062 24.09375 36.664062 27.519531 L 36.664062 28.386719 L 29.257812 28.386719 L 29.257812 28.535156 C 29.296875 30.140625 30.238281 31.140625 31.726562 31.140625 C 32.851562 31.140625 33.621094 30.738281 33.925781 30.027344 L 36.578125 30.027344 C 36.148438 32.0625 34.289062 33.332031 31.644531 33.332031 C 28.355469 33.332031 26.417969 31.257812 26.417969 27.753906 C 26.417969 24.242188 28.394531 22.066406 31.605469 22.066406 Z M 31.617188 24.25 C 30.296875 24.25 29.363281 25.167969 29.269531 26.570312 L 33.867188 26.570312 C 33.808594 25.140625 32.949219 24.25 31.617188 24.25 Z M 16.289062 26.824219 L 16.289062 30.839844 L 18.921875 30.839844 C 20.625 30.839844 21.546875 30.121094 21.546875 28.800781 C 21.546875 27.507812 20.597656 26.824219 18.855469 26.824219 Z M 16.289062 26.824219 "/>
</g>
</svg>
